<svg width="27" height="28" viewBox="0 0 27 28" fill="none" xmlns="http://www.w3.org/2000/svg">
<path d="M17.5453 27.7761C15.9511 27.7761 14.3662 27.7854 12.7721 27.7761C11.1779 27.7668 10.0499 26.6949 10.0499 25.2223C10.0499 23.7496 11.1779 22.6871 12.7721 22.6591C13.2755 22.6591 13.7789 22.6498 14.2823 22.6591C15.485 22.6871 16.3893 23.2836 16.7529 24.43C16.9486 25.0359 17.2656 25.1943 17.8436 25.1757C19.214 25.1477 20.5752 25.1757 21.9456 25.157C23.372 25.1384 24.2576 24.2902 24.2669 22.8642C24.2856 19.8257 24.3322 16.7779 24.2576 13.7394C24.0898 7.60655 18.1979 2.69464 12.1568 3.58941C6.46064 4.43758 2.74088 8.69704 2.69426 14.4571C2.68494 15.7899 2.39592 16.0882 1.156 16.0509C0.307639 16.023 0 15.7527 0 14.8672C0 9.39608 2.39594 5.16458 7.12253 2.52688C11.8025 -0.0828637 16.6037 0.17811 21.0319 3.28184C24.9102 6.00342 26.8679 9.87143 26.9705 14.6249C27.0264 17.2719 26.9891 19.9282 26.9705 22.5753C26.9705 25.7536 24.9661 27.7668 21.8057 27.7668C20.3794 27.7668 18.9623 27.7668 17.5359 27.7668L17.5453 27.7761Z" fill="#495916"/>
<path d="M10.2363 14.7554C10.2363 15.6222 10.255 16.4797 10.2363 17.3465C10.199 18.726 9.51851 19.3877 8.1574 19.4064C5.50976 19.4436 4.19527 18.1481 4.19527 15.4918C4.19527 14.7648 4.15799 14.0378 4.2046 13.3201C4.40038 10.6917 6.74966 9.61052 9.071 10.2443C9.87275 10.4587 10.2177 11.1857 10.2271 12.0059C10.2457 12.9193 10.2271 13.842 10.2271 14.7648L10.2363 14.7554Z" fill="#495916"/>
<path d="M16.7529 14.7461C16.7529 13.8513 16.7343 12.9659 16.7529 12.0711C16.7809 10.7755 17.4428 10.1138 18.7107 10.0951C21.4235 10.0392 22.794 11.3627 22.794 14.0843C22.794 14.8859 22.8406 15.7061 22.7101 16.4983C22.2812 19.0894 20.0718 19.7512 17.9742 19.2945C17.1538 19.1174 16.7808 18.4184 16.7622 17.5888C16.7435 16.6475 16.7622 15.6968 16.7622 14.7461H16.7529Z" fill="#495916"/>
</svg>
