<svg width="57" height="49" viewBox="0 0 57 49" fill="none" xmlns="http://www.w3.org/2000/svg">
<path d="M28.866 22.54C35.0188 22.54 40.0066 17.5764 40.0066 11.4536C40.0066 5.33074 35.0188 0.367188 28.866 0.367188C22.7132 0.367188 17.7253 5.33074 17.7253 11.4536C17.7253 17.5764 22.7132 22.54 28.866 22.54Z" fill="white"/>
<path d="M11.971 48.5444C18.1238 48.5444 23.1116 43.5808 23.1116 37.458C23.1116 31.3351 18.1238 26.3716 11.971 26.3716C5.81815 26.3716 0.830322 31.3351 0.830322 37.458C0.830322 43.5808 5.81815 48.5444 11.971 48.5444Z" fill="white"/>
<path d="M45.7715 48.5444C51.9243 48.5444 56.9121 43.5808 56.9121 37.458C56.9121 31.3351 51.9243 26.3716 45.7715 26.3716C39.6187 26.3716 34.6309 31.3351 34.6309 37.458C34.6309 43.5808 39.6187 48.5444 45.7715 48.5444Z" fill="white"/>
</svg>
