<svg width="51" height="50" viewBox="0 0 51 50" fill="none" xmlns="http://www.w3.org/2000/svg">
<path d="M25.2557 15.5718C34.7763 15.5718 42.3085 23.0569 42.3191 32.5207C42.3191 42.0577 34.7868 49.5533 25.1821 49.5429C15.7457 49.5429 8.08717 41.9739 8.03457 32.5939C7.98197 23.2349 15.7352 15.5718 25.2663 15.5718H25.2557ZM19.2173 39.2102C19.2699 40.1105 19.7012 40.6549 20.7953 40.278C21.1319 40.1629 21.4896 40.0268 21.7631 39.8069C24.1616 37.8702 26.4971 38.111 28.8535 39.8907C29.369 40.278 30.0002 40.7282 30.684 40.2571C31.3468 39.7965 31.2626 39.0008 31.0522 38.425C29.9476 35.3996 30.8313 33.0965 33.4192 31.3063C33.9242 30.9608 34.345 30.4269 34.1346 29.7255C33.9031 28.9822 33.2193 28.9299 32.6092 28.9299C29.4953 28.9299 27.3281 27.6632 26.476 24.554C26.4234 24.3655 26.2972 24.1876 26.192 24.0096C25.4661 22.879 24.6456 22.8161 24.2248 24.0828C23.0992 27.4852 20.8584 29.0346 17.2816 29.0241C16.0402 29.0241 15.7983 29.9663 16.6925 30.9294C17.492 31.7984 18.3441 32.6149 19.2173 33.4105C19.8485 33.9863 20.0694 34.6144 19.8695 35.4624C19.596 36.6558 19.4382 37.8807 19.2068 39.2102H19.2173Z" fill="white"/>
<path d="M7.75054 0.214289C9.39165 0.214289 11.0328 0.214289 12.6844 0.214289C13.9152 0.214289 14.9041 0.685386 15.5459 1.72179C17.6078 5.08226 19.6276 8.46369 21.6789 11.8242C22.1734 12.6303 21.9315 13.0385 21.0583 13.2165C17.8182 13.8656 14.9357 15.2684 12.4003 17.3621C11.706 17.9274 11.2537 17.8018 10.7803 17.1109C7.47703 12.3685 4.13168 7.64712 0.849452 2.88384C-0.0763036 1.53337 0.554881 0.318976 2.21703 0.245694C4.05803 0.161944 5.90956 0.224768 7.76107 0.224768L7.75054 0.214289Z" fill="white"/>
<path d="M42.8662 0.214265C44.5599 0.214265 46.2642 0.214265 47.9579 0.214265C48.7153 0.214265 49.4096 0.339888 49.8093 1.06223C50.2512 1.85786 49.9146 2.52789 49.4412 3.18742C46.2221 7.75179 43.0135 12.3266 39.8259 16.9119C39.2263 17.7704 38.6898 17.9483 37.8377 17.2365C35.4286 15.2265 32.6724 13.8969 29.6006 13.2584C28.4434 13.0176 28.3171 12.5255 28.9167 11.5624C30.8524 8.42179 32.746 5.26022 34.6501 2.09866C35.4286 0.790066 36.5332 0.151464 38.0902 0.193339C39.6787 0.245683 41.2777 0.203818 42.8767 0.203818L42.8662 0.214265Z" fill="white"/>
</svg>
