<svg width="46" height="53" viewBox="0 0 46 53" fill="none" xmlns="http://www.w3.org/2000/svg">
<path d="M39.3608 8.22434L38.3648 7.25429C37.7229 6.62165 36.8376 6.26315 35.919 6.26315H9.37007C8.30767 6.26315 7.3006 6.66383 6.54807 7.38082C5.79553 8.09782 5.375 9.05732 5.375 10.0695V25.5377C5.375 26.571 5.80659 27.5727 6.58126 28.3107C7.35593 29.0488 8.39621 29.46 9.49181 29.46H25.9258L34.4472 37.5789V31.4529C34.4472 30.4512 35.0558 29.5338 36.0076 29.1015L38.4754 27.9944C39.6042 27.4883 40.3125 26.4128 40.3125 25.2319V10.4913C40.3125 9.64779 39.9694 8.8359 39.3497 8.23489L39.3608 8.22434Z" fill="white"/>
<rect width="43" height="29.5263" rx="7" fill="white"/>
<path d="M31.3542 16.1053H36.8104" stroke="#00355B" stroke-width="4" stroke-miterlimit="10" stroke-linecap="round"/>
<path d="M5.375 16.1053H10.8312" stroke="#00355B" stroke-width="4" stroke-miterlimit="10" stroke-linecap="round"/>
<path d="M17.9166 16.1053H26.1009" stroke="#00355B" stroke-width="4" stroke-miterlimit="10" stroke-linecap="round"/>
<path d="M12.418 45.7598C11.7474 45.7598 11.2201 45.9974 10.8359 46.4727C10.4518 46.9479 10.2598 47.6038 10.2598 48.4404C10.2598 49.3161 10.4437 49.9785 10.8115 50.4277C11.1826 50.877 11.7181 51.1016 12.418 51.1016C12.7207 51.1016 13.0137 51.0723 13.2969 51.0137C13.5801 50.9518 13.8747 50.8737 14.1807 50.7793V51.7803C13.6208 51.9919 12.986 52.0977 12.2764 52.0977C11.2314 52.0977 10.429 51.7819 9.86914 51.1504C9.30924 50.5156 9.0293 49.609 9.0293 48.4307C9.0293 47.6885 9.16439 47.0391 9.43457 46.4824C9.70801 45.9258 10.1019 45.4993 10.6162 45.2031C11.1305 44.9069 11.7344 44.7588 12.4277 44.7588C13.1569 44.7588 13.8307 44.9118 14.4492 45.2178L14.0293 46.1895C13.7884 46.0755 13.5329 45.9762 13.2627 45.8916C12.9958 45.8037 12.7142 45.7598 12.418 45.7598ZM21.3486 52H20.1768V48.7822H16.8857V52H15.7188V44.8613H16.8857V47.7812H20.1768V44.8613H21.3486V52ZM27.6572 52L26.9443 50.0176H24.2148L23.5166 52H22.2861L24.957 44.832H26.2266L28.8975 52H27.6572ZM26.6367 49.0117L25.9678 47.0684C25.9189 46.9382 25.8506 46.7331 25.7627 46.4531C25.6781 46.1732 25.6195 45.9681 25.5869 45.8379C25.499 46.2383 25.3704 46.6761 25.2012 47.1514L24.5566 49.0117H26.6367ZM32.3057 52H31.1387V45.8623H29.0391V44.8613H34.4053V45.8623H32.3057V52Z" fill="white"/>
</svg>
