<svg width="28" height="32" viewBox="0 0 28 32" fill="none" xmlns="http://www.w3.org/2000/svg">
<path d="M13.6219 25.9529C9.92451 25.9529 6.22715 25.9422 2.5298 25.9529C1.51947 25.9529 0.659627 25.738 0.197458 24.7602C-0.264711 23.7931 0.143726 22.9549 0.810109 22.3102C3.1532 20.0213 3.74434 17.1093 3.80883 14.0253C3.92706 8.87814 6.03369 5.88011 10.8488 4.12857C11.3003 3.96739 11.5475 3.74173 11.5475 3.24743C11.5475 2.92506 11.5905 2.60269 11.6657 2.29107C11.9129 1.30247 12.8265 0.657737 13.8261 0.754447C14.7934 0.851158 15.621 1.59261 15.578 2.60269C15.535 3.65576 15.9757 3.99962 16.9108 4.31125C20.8123 5.61147 23.3059 9.12528 23.3382 13.2409C23.3382 14.5626 23.4779 15.8735 23.7573 17.163C24.155 19.0865 24.8751 20.8595 26.3476 22.2349C26.4444 22.3209 26.5196 22.4284 26.6056 22.5251C27.1967 23.2235 27.4117 23.9972 27.0033 24.8461C26.6056 25.6628 25.8962 25.9529 25.0256 25.9529C21.2315 25.9529 17.4374 25.9529 13.6434 25.9529H13.6219Z" fill="#495916"/>
<path d="M13.5358 31.7448C11.7946 31.7341 10.0749 30.3587 9.7632 28.7361C9.64497 28.1343 9.69872 27.7475 10.4726 27.7582C12.5255 27.7905 14.5784 27.7905 16.642 27.7582C17.5018 27.7582 17.6093 28.1665 17.4266 28.865C16.9859 30.5521 15.3737 31.7556 13.5358 31.7448Z" fill="#495916"/>
</svg>
