<svg width="34" height="33" viewBox="0 0 34 33" fill="none" xmlns="http://www.w3.org/2000/svg">
<path d="M5.71413 30.6049C6.16329 28.0195 6.54512 25.423 7.08411 22.8597C7.31992 21.7501 7.0841 21.0066 6.23069 20.2521C4.41159 18.632 2.69352 16.901 0.930567 15.2144C0.245598 14.5597 -0.237217 13.8496 0.122111 12.8287C0.470211 11.8522 1.18888 11.4528 2.1658 11.3196C4.82707 10.9534 7.47709 10.5429 10.1384 10.1989C10.7896 10.1101 11.1378 9.81052 11.4072 9.2557C12.4852 7.04755 13.6194 4.86159 14.7086 2.64233C15.1914 1.65477 15.6855 0.744873 17.0105 0.744873C18.358 0.744873 18.8072 1.71025 19.2788 2.67562C20.3231 4.79501 21.4348 6.88111 22.4341 9.02268C22.8047 9.82161 23.3212 10.1656 24.1634 10.2655C26.6225 10.5873 29.0817 10.9645 31.5408 11.3307C32.136 11.4195 32.7424 11.4861 33.2364 11.8855C34.247 12.7177 34.2695 13.9827 33.214 15.0258C31.4285 16.779 29.6319 18.5322 27.7792 20.2077C26.937 20.9623 26.6787 21.7168 26.9145 22.8375C27.4086 25.1455 27.7343 27.4758 28.1497 29.7949C28.3294 30.7935 28.3406 31.7256 27.3637 32.3692C26.4541 32.9684 25.6008 32.7243 24.7137 32.2583C22.4342 31.0488 20.1209 29.9169 17.8414 28.7075C17.1902 28.3635 16.6737 28.4189 16.0561 28.7407C13.7204 29.9835 11.3623 31.193 9.00422 32.3914C7.91501 32.9462 7.01673 32.8353 6.3093 32.1473C5.8826 31.7256 5.69172 31.2152 5.69172 30.6049H5.71413ZM24.6575 28.7296C24.2195 26.0333 23.8602 23.6032 23.4223 21.1953C23.2875 20.474 23.4897 20.0191 24.0062 19.5308C25.5783 18.0328 27.1166 16.5016 28.655 14.9814C28.8571 14.7816 29.2389 14.6152 29.1042 14.2823C29.0031 14.0382 28.6438 14.0604 28.3855 14.0271C26.3867 13.7497 24.3993 13.4501 22.4005 13.2171C21.345 13.095 20.66 12.7177 20.1996 11.6747C19.3349 9.71065 18.3019 7.82429 17.2688 5.78258C17.1678 6.02669 17.1116 6.11546 17.1116 6.19314C17.1116 12.1629 17.1116 18.1438 17.1116 24.1136C17.1116 24.4576 17.1677 24.7905 17.5046 24.968C19.8065 26.1775 22.1085 27.387 24.6575 28.7296Z" fill="white"/>
</svg>
