<svg width="35" height="28" viewBox="0 0 35 28" fill="none" xmlns="http://www.w3.org/2000/svg">
<path d="M13.9869 0.744873C16.8197 0.786918 20.5398 2.03775 23.3192 5.30673C26.1627 8.64928 25.6817 13.4529 22.2716 16.2909C17.707 20.0855 12.5651 20.5795 7.05977 18.761C6.23664 18.4878 5.58457 18.4247 4.80421 18.8346C3.62831 19.4338 2.34551 19.7176 1.01996 19.7491C0.66719 19.7491 0.293046 19.7596 0.122007 19.3602C-0.0276525 19.0028 0.239583 18.7821 0.442692 18.5403C0.66718 18.2775 0.891686 18.0147 1.09479 17.7309C1.90723 16.6027 1.94287 15.4745 1.2017 14.3463C-0.636969 11.5293 -0.337646 7.75583 1.90724 5.22264C4.51559 2.27951 8.16083 0.765895 13.9762 0.765895L13.9869 0.744873Z" fill="#495916"/>
<path d="M12.696 21.849C17.5155 21.8171 21.7166 20.3259 24.8941 16.5449C26.3869 14.7662 27.1226 12.7105 27.0906 10.378C27.0693 9.22767 27.2185 9.14246 28.2955 9.60045C30.8438 10.6762 32.9444 12.2738 34.1706 14.8088C35.5567 17.6632 35.1729 20.4005 33.2643 22.8822C32.7844 23.5106 32.7844 23.9685 33.1576 24.5863C33.5521 25.2467 34 25.8644 34.4798 26.4502C34.7037 26.7165 35.0022 26.9721 34.8103 27.3662C34.5971 27.8029 34.1706 27.7177 33.7974 27.707C32.4326 27.6644 31.1424 27.3023 29.9375 26.6952C29.3084 26.3757 28.7859 26.397 28.1249 26.6419C23.1028 28.4845 18.3046 28.1118 13.7943 25.0975C12.8347 24.4585 12.0456 23.6171 11.3632 22.6798C11.2033 22.4668 10.926 22.2111 11.118 21.9236C11.2779 21.6786 11.5871 21.849 11.8324 21.8384C12.1203 21.8384 12.4081 21.8384 12.696 21.8384V21.849Z" fill="#495916"/>
</svg>
