<svg width="41" height="31" viewBox="0 0 41 31" fill="none" xmlns="http://www.w3.org/2000/svg">
<path d="M20.3531 30.7449C15.0559 30.7449 9.7587 30.7449 4.44736 30.7449C1.48718 30.7449 0 29.2919 0 26.3722C0 19.2873 0 12.2024 0 5.11757C0 2.21166 1.50134 0.772548 4.46152 0.758711C8.10156 0.758711 11.7558 0.786386 15.3958 0.744873C16.3164 0.744873 17.0104 1.00779 17.6336 1.65816C18.7101 2.77901 19.8715 3.81683 20.9338 4.92384C21.5003 5.51886 22.1235 5.74026 22.9591 5.74026C27.449 5.71258 31.953 5.72642 36.4429 5.74026C39.4314 5.74026 40.9752 7.24856 40.9894 10.196C41.0035 15.5788 41.0035 20.9617 40.9894 26.3583C40.9894 29.2227 39.4172 30.7449 36.4995 30.7449C31.1174 30.7449 25.7352 30.7449 20.3389 30.7449H20.3531ZM20.438 26.1646C21.8686 26.1646 22.1518 25.9017 22.1802 24.5041C22.2085 23.4663 22.2226 22.4423 22.1802 21.4045C22.1377 20.3666 22.5342 19.8823 23.6532 19.9377C24.7863 19.993 25.9335 19.9377 27.0807 19.9377C28.2988 19.9515 28.5538 19.2458 28.5538 18.2495C28.5538 17.267 28.3413 16.5198 27.1091 16.5336C25.8768 16.5475 24.6588 16.5059 23.4265 16.5336C22.5626 16.5475 22.1802 16.1738 22.1943 15.3436C22.1943 14.4303 22.1943 13.5309 22.1943 12.6176C22.1943 10.5558 22.0102 10.3205 20.4664 10.3205C18.88 10.3205 18.6676 10.5696 18.6676 12.6868C18.6676 13.6 18.6393 14.5133 18.6676 15.4128C18.6818 16.2015 18.3277 16.5336 17.5203 16.5336C16.2881 16.5198 15.07 16.5613 13.8378 16.5336C12.5489 16.5059 12.294 17.2532 12.294 18.291C12.294 19.3011 12.6056 19.9792 13.8095 19.9515C14.8717 19.9238 15.934 20.0069 16.9821 19.9377C18.2285 19.8408 18.7951 20.2559 18.6818 21.5428C18.5968 22.5253 18.6534 23.5216 18.6818 24.5179C18.7101 25.8879 19.0358 26.1785 20.4522 26.1646H20.438Z" fill="#495916"/>
</svg>
