<svg width="63" height="50" viewBox="0 0 63 50" fill="none" xmlns="http://www.w3.org/2000/svg">
<path d="M35.2118 26.1165C35.2118 33.3295 35.2118 40.5529 35.2118 47.7659C35.2118 49.8073 35.1697 49.8387 33.1499 49.8387C23.3242 49.8387 13.4986 49.8387 3.6835 49.8387C1.35859 49.8387 0.937788 49.399 0.916748 47.0331C0.916748 46.5201 0.916758 46.0071 0.927278 45.4942C0.979878 44.196 1.65314 43.526 2.96814 43.5155C4.81965 43.5155 6.67116 43.4318 8.52267 43.5365C10.006 43.6203 10.1953 42.8874 10.1848 41.6731C10.1533 31.2881 10.1638 20.8926 10.1638 10.5076C10.1638 6.49806 10.5425 5.95368 14.3718 4.94868C19.6844 3.5354 25.0074 2.164 30.3411 0.803061C33.455 0.00743568 35.2013 1.3893 35.2013 4.62415C35.2118 11.7848 35.2013 18.9559 35.2013 26.1165H35.2118ZM28.6684 25.3942C28.7526 23.6354 27.7637 22.1907 26.5013 22.2326C25.2915 22.264 24.3657 23.6459 24.4183 25.3313C24.4709 26.8807 25.3862 28.0951 26.5118 28.116C27.648 28.137 28.5948 26.9435 28.6684 25.3942Z" fill="white"/>
<path d="M47.2045 31.3192C47.2045 25.7917 47.1729 20.2642 47.2255 14.7367C47.2361 13.4177 46.8363 12.8942 45.4687 12.9675C43.5225 13.0617 41.5553 12.9466 39.6091 13.0094C38.4308 13.0513 37.9154 12.6535 37.9364 11.4391C38.0416 5.59753 37.1685 6.80143 42.5442 6.67581C44.5009 6.63393 46.4576 6.65487 48.4038 6.67581C51.7386 6.69675 53.6743 8.57065 53.7058 11.9206C53.7479 15.6056 53.7163 19.2906 53.7163 22.9756C53.7163 29.2255 53.7479 35.4649 53.6953 41.7147C53.6848 43.0966 54.074 43.6514 55.5363 43.5677C57.3247 43.463 59.1341 43.5467 60.933 43.5467C62.2585 43.5467 62.9318 44.2377 62.9634 45.5358C63.0791 49.6814 62.9634 49.9641 58.9658 49.8803C55.7257 49.8175 52.4855 49.8803 49.2454 49.8699C47.2466 49.8699 47.2045 49.8385 47.2045 47.7761C47.2045 42.301 47.2045 36.8258 47.2045 31.3402V31.3192Z" fill="white"/>
</svg>
