<svg width="48" height="48" viewBox="0 0 48 48" fill="none" xmlns="http://www.w3.org/2000/svg">
<path d="M10.2537 47.315C15.7674 47.315 20.2371 42.867 20.2371 37.3801C20.2371 31.8933 15.7674 27.4453 10.2537 27.4453C4.73999 27.4453 0.270264 31.8933 0.270264 37.3801C0.270264 42.867 4.73999 47.315 10.2537 47.315Z" fill="white"/>
<path d="M10.2537 20.5567C15.7674 20.5567 20.2371 16.1087 20.2371 10.6218C20.2371 5.13498 15.7674 0.687012 10.2537 0.687012C4.73999 0.687012 0.270264 5.13498 0.270264 10.6218C0.270264 16.1087 4.73999 20.5567 10.2537 20.5567Z" fill="white"/>
<path d="M37.1426 47.315C42.6563 47.315 47.126 42.867 47.126 37.3801C47.126 31.8933 42.6563 27.4453 37.1426 27.4453C31.6289 27.4453 27.1592 31.8933 27.1592 37.3801C27.1592 42.867 31.6289 47.315 37.1426 47.315Z" fill="white"/>
<path d="M37.1426 20.5567C42.6563 20.5567 47.126 16.1087 47.126 10.6218C47.126 5.13498 42.6563 0.687012 37.1426 0.687012C31.6289 0.687012 27.1592 5.13498 27.1592 10.6218C27.1592 16.1087 31.6289 20.5567 37.1426 20.5567Z" fill="white"/>
</svg>
