<svg width="55" height="53" viewBox="0 0 55 53" fill="none" xmlns="http://www.w3.org/2000/svg">
<path d="M10.25 43.7598C9.57943 43.7598 9.05208 43.9974 8.66797 44.4727C8.28385 44.9479 8.0918 45.6038 8.0918 46.4404C8.0918 47.3161 8.27572 47.9785 8.64355 48.4277C9.01465 48.877 9.55013 49.1016 10.25 49.1016C10.5527 49.1016 10.8457 49.0723 11.1289 49.0137C11.4121 48.9518 11.7067 48.8737 12.0127 48.7793V49.7803C11.4528 49.9919 10.818 50.0977 10.1084 50.0977C9.06348 50.0977 8.26107 49.7819 7.70117 49.1504C7.14128 48.5156 6.86133 47.609 6.86133 46.4307C6.86133 45.6885 6.99642 45.0391 7.2666 44.4824C7.54004 43.9258 7.93392 43.4993 8.44824 43.2031C8.96257 42.9069 9.56641 42.7588 10.2598 42.7588C10.9889 42.7588 11.6628 42.9118 12.2812 43.2178L11.8613 44.1895C11.6204 44.0755 11.3649 43.9762 11.0947 43.8916C10.8278 43.8037 10.5462 43.7598 10.25 43.7598ZM19.8887 46.4209C19.8887 47.583 19.5973 48.4863 19.0146 49.1309C18.4352 49.7754 17.6133 50.0977 16.5488 50.0977C15.4714 50.0977 14.6429 49.7786 14.0635 49.1406C13.4873 48.4993 13.1992 47.5895 13.1992 46.4111C13.1992 45.2327 13.4889 44.3278 14.0684 43.6963C14.651 43.0648 15.4811 42.749 16.5586 42.749C17.6198 42.749 18.4401 43.0697 19.0195 43.7109C19.599 44.3522 19.8887 45.2555 19.8887 46.4209ZM14.4395 46.4209C14.4395 47.2998 14.6169 47.9671 14.9717 48.4229C15.3265 48.8753 15.8522 49.1016 16.5488 49.1016C17.2422 49.1016 17.7646 48.877 18.1162 48.4277C18.471 47.9785 18.6484 47.3096 18.6484 46.4209C18.6484 45.5452 18.4727 44.8812 18.1211 44.4287C17.7728 43.9762 17.252 43.75 16.5586 43.75C15.8587 43.75 15.3298 43.9762 14.9717 44.4287C14.6169 44.8812 14.4395 45.5452 14.4395 46.4209ZM22.5889 46.1816H23.3994C23.943 46.1816 24.3369 46.0807 24.5811 45.8789C24.8252 45.6771 24.9473 45.3776 24.9473 44.9805C24.9473 44.5768 24.8154 44.2871 24.5518 44.1113C24.2881 43.9355 23.891 43.8477 23.3604 43.8477H22.5889V46.1816ZM22.5889 47.1484V50H21.4219V42.8613H23.4385C24.3597 42.8613 25.0417 43.0339 25.4844 43.3789C25.9271 43.724 26.1484 44.2448 26.1484 44.9414C26.1484 45.8301 25.6862 46.4632 24.7617 46.8408L26.7783 50H25.4502L23.7412 47.1484H22.5889ZM28.9854 46.1816H29.7959C30.3395 46.1816 30.7334 46.0807 30.9775 45.8789C31.2217 45.6771 31.3438 45.3776 31.3438 44.9805C31.3438 44.5768 31.2119 44.2871 30.9482 44.1113C30.6846 43.9355 30.2874 43.8477 29.7568 43.8477H28.9854V46.1816ZM28.9854 47.1484V50H27.8184V42.8613H29.835C30.7562 42.8613 31.4382 43.0339 31.8809 43.3789C32.3236 43.724 32.5449 44.2448 32.5449 44.9414C32.5449 45.8301 32.0827 46.4632 31.1582 46.8408L33.1748 50H31.8467L30.1377 47.1484H28.9854ZM38.2529 50H34.2148V42.8613H38.2529V43.8477H35.3818V45.791H38.0723V46.7676H35.3818V49.0088H38.2529V50ZM46.1387 46.4209C46.1387 47.583 45.8473 48.4863 45.2646 49.1309C44.6852 49.7754 43.8633 50.0977 42.7988 50.0977C41.7214 50.0977 40.8929 49.7786 40.3135 49.1406C39.7373 48.4993 39.4492 47.5895 39.4492 46.4111C39.4492 45.2327 39.7389 44.3278 40.3184 43.6963C40.901 43.0648 41.7311 42.749 42.8086 42.749C43.8698 42.749 44.6901 43.0697 45.2695 43.7109C45.849 44.3522 46.1387 45.2555 46.1387 46.4209ZM40.6895 46.4209C40.6895 47.2998 40.8669 47.9671 41.2217 48.4229C41.5765 48.8753 42.1022 49.1016 42.7988 49.1016C43.4922 49.1016 44.0146 48.877 44.3662 48.4277C44.721 47.9785 44.8984 47.3096 44.8984 46.4209C44.8984 45.5452 44.7227 44.8812 44.3711 44.4287C44.0228 43.9762 43.502 43.75 42.8086 43.75C42.1087 43.75 41.5798 43.9762 41.2217 44.4287C40.8669 44.8812 40.6895 45.5452 40.6895 46.4209Z" fill="white"/>
<path d="M47.6627 2.69179C47.609 2.76278 47.562 2.83377 47.4949 2.89885L32.7797 17.6179C31.2029 19.1975 28.9281 20.1026 26.5394 20.1026C24.1506 20.1026 21.8759 19.1975 20.299 17.6179L5.40932 2.71545C5.14762 3.25973 5 3.85133 5 4.47843V21.3509C5 25.7051 9.00591 29.237 13.9445 29.237H39.1476C44.0862 29.237 48.0921 25.7051 48.0921 21.3509V4.47843C48.0921 3.8395 47.9378 3.23606 47.6694 2.69179H47.6627Z" fill="white"/>
<path d="M23.6473 15.0089C24.3854 15.7484 25.412 16.1566 26.5326 16.1566C27.6532 16.1566 28.6798 15.7484 29.4179 15.0089L44.1264 0.289885C44.1801 0.236641 44.2405 0.195229 44.2942 0.153817C43.8781 0.0532442 43.4353 0 42.9857 0H10.066C9.62318 0 9.19374 0.0532442 8.78442 0.1479L23.6405 15.0089H23.6473Z" fill="white"/>
</svg>
