<svg width="26" height="27" viewBox="0 0 26 27" fill="none" xmlns="http://www.w3.org/2000/svg">
<path d="M13.0095 26.7403C9.72829 26.7403 6.44709 26.7403 3.16588 26.7403C1.12537 26.7403 0.00769035 25.649 0.00769035 23.6208C-0.00256345 17.0319 -0.00256345 10.4327 0.00769035 3.84373C0.00769035 1.85676 1.12536 0.744873 3.09409 0.744873C9.68729 0.744873 16.2907 0.744873 22.8839 0.744873C24.7706 0.744873 25.9806 1.88764 25.9806 3.77167C26.0011 10.4224 26.0113 17.0834 25.9806 23.7341C25.9806 25.6078 24.7501 26.7403 22.8634 26.7403C19.5822 26.7506 16.301 26.7403 13.0198 26.7403H13.0095ZM10.7229 21.2324C11.0921 21.1809 11.3586 20.872 11.6457 20.5941C14.9372 17.2893 18.2389 13.9845 21.5304 10.6695C22.3097 9.88703 22.2995 9.60906 21.5509 8.82662C21.3766 8.6516 21.2023 8.47658 21.028 8.30156C19.9923 7.26175 19.9 7.26175 18.8234 8.33245C16.3522 10.8136 13.8606 13.2742 11.4202 15.7862C10.846 16.373 10.4666 16.4863 9.89237 15.8171C9.19511 15.0037 8.39529 14.2728 7.62626 13.5212C5.82159 11.7402 6.24198 11.6475 4.28351 13.5933C3.7298 14.1492 3.74007 14.6125 4.29377 15.1582C6.17022 17.0216 8.02618 18.8953 9.89237 20.7691C10.1077 20.9853 10.323 21.2221 10.7229 21.2324Z" fill="#495916"/>
</svg>
