<svg width="97" height="54" viewBox="0 0 97 54" fill="none" xmlns="http://www.w3.org/2000/svg">
<path d="M18.0658 2.61311C9.88265 13.4884 5.30802 34.2856 16.0079 50.3925C17.6648 52.7544 18.916 53.9281 18.916 53.9281C6.91664 36.2498 15.5586 13.0908 24.4857 1.22857L16.4765 0.208118C16.4765 0.208118 12.7424 -0.8315 11.1773 1.73641L18.0706 2.61791L18.0658 2.61311Z" fill="white"/>
<path d="M18.2012 53.9377C4.25508 39.0238 5.82505 15.3712 14.2304 4.20373C14.2304 4.20373 7.95536 3.46114 6.7332 3.33658C5.20189 3.17848 2.00405 2.49341 1.28911 6.01949C-5.72982 40.485 18.2012 53.9377 18.2012 53.9377Z" fill="white"/>
<path d="M25.1139 35.9863C25.1139 35.924 25.167 35.8665 25.2347 35.8665H26.7467C27.5147 35.8665 28.1524 36.4893 28.1524 37.2415C28.1524 37.9937 27.5196 38.6404 26.7563 38.6404H26.0994V40.1016C26.0994 40.1639 26.0414 40.2214 25.9786 40.2214H25.2395C25.1719 40.2214 25.1187 40.1639 25.1187 40.1016V35.9863H25.1139ZM26.6887 37.7302C26.9592 37.7302 27.1814 37.5194 27.1814 37.2415C27.1814 36.978 26.9544 36.7816 26.6887 36.7816H26.0945V37.7302H26.6887Z" fill="white"/>
<path d="M31.5526 35.8044C32.8085 35.8044 33.8085 36.8057 33.8085 38.0466C33.8085 39.2874 32.8037 40.2791 31.5526 40.2791C30.3014 40.2791 29.3015 39.2922 29.3015 38.0466C29.3015 36.8009 30.2966 35.8044 31.5526 35.8044ZM31.5526 39.2874C32.2433 39.2874 32.8086 38.7269 32.8086 38.0514C32.8086 37.3758 32.2433 36.801 31.5526 36.801C30.8618 36.801 30.3063 37.3663 30.3063 38.0514C30.3063 38.7365 30.8714 39.2874 31.5526 39.2874Z" fill="white"/>
<path d="M35.248 35.9863C35.248 35.924 35.2964 35.8665 35.3688 35.8665H36.1128C36.1755 35.8665 36.2335 35.924 36.2335 35.9863V39.3064H37.7262C37.7938 39.3064 37.8469 39.3638 37.8469 39.4261V40.1016C37.8469 40.1639 37.7986 40.2214 37.7262 40.2214H35.3688C35.3012 40.2214 35.248 40.1639 35.248 40.1016V35.9863Z" fill="white"/>
<path d="M39.601 35.8665H40.3498C40.4174 35.8665 40.4705 35.9192 40.4705 35.9863V40.1016C40.4705 40.1687 40.4174 40.2214 40.3498 40.2214H39.601C39.5334 40.2214 39.4802 40.1687 39.4802 40.1016V35.9863C39.4802 35.9192 39.5334 35.8665 39.601 35.8665Z" fill="white"/>
<path d="M43.1472 36.7816H42.2487C42.1811 36.7816 42.1279 36.7241 42.1279 36.6618V35.9863C42.1279 35.924 42.1762 35.8665 42.2487 35.8665H45.0312C45.0988 35.8665 45.1519 35.924 45.1519 35.9863V36.6618C45.1519 36.7241 45.1036 36.7816 45.0312 36.7816H44.1375V40.1016C44.1375 40.1639 44.0795 40.2214 44.0167 40.2214H43.2631C43.2003 40.2214 43.1472 40.1639 43.1472 40.1016V36.7816Z" fill="white"/>
<path d="M46.7787 35.9864C46.7787 35.9242 46.827 35.8667 46.8946 35.8667H49.4887C49.5563 35.8667 49.6094 35.9242 49.6094 35.9864V36.6619C49.6094 36.7242 49.5563 36.7817 49.4887 36.7817H47.7545V37.553H49.1843C49.2471 37.553 49.3003 37.6105 49.3003 37.6728V38.3531C49.3003 38.4202 49.2423 38.4729 49.1843 38.4729H47.7545V39.3113H49.4887C49.5563 39.3113 49.6094 39.3688 49.6094 39.4311V40.1066C49.6094 40.1688 49.5563 40.2263 49.4887 40.2263H46.8946C46.827 40.2263 46.7787 40.1688 46.7787 40.1066V35.9912V35.9864ZM47.6095 35.4259L47.4792 35.1672C47.455 35.1193 47.484 35.0714 47.5178 35.0522L48.5805 34.4055C48.6192 34.3815 48.711 34.3671 48.7448 34.4246L48.9573 34.7935C49.0056 34.8845 48.9718 34.9468 48.9187 34.9803L47.7787 35.4882C47.6965 35.5361 47.6385 35.4977 47.6095 35.4307" fill="white"/>
<path d="M53.2671 35.8041C53.8951 35.8041 54.3588 35.9957 54.7839 36.3838C54.8419 36.4317 54.8419 36.5083 54.7888 36.5562L54.3009 37.0593C54.2574 37.1024 54.1897 37.1024 54.1462 37.0593C53.9144 36.8532 53.61 36.7431 53.3009 36.7431C52.5908 36.7431 52.0739 37.3275 52.0739 38.0222C52.0739 38.7169 52.6004 39.2822 53.3105 39.2822C53.6052 39.2822 53.924 39.1768 54.1511 38.9852C54.1946 38.9469 54.2767 38.9468 54.3153 38.99L54.8032 39.5074C54.8467 39.5505 54.8418 39.632 54.7984 39.6751C54.3733 40.0871 53.8323 40.2787 53.2768 40.2787C52.0208 40.2787 51.016 39.2918 51.016 38.0462C51.016 36.8005 52.0256 35.7993 53.2768 35.7993" fill="white"/>
<path d="M56.4117 35.9191C56.4117 35.8568 56.4697 35.8089 56.5325 35.8089H56.6919L59.1942 38.1947H59.199V35.9862C59.199 35.9239 59.2473 35.8664 59.3198 35.8664H60.0685C60.1313 35.8664 60.1893 35.9239 60.1893 35.9862V40.1686C60.1893 40.2309 60.1313 40.2788 60.0685 40.2788H59.9671C59.9671 40.2788 59.8994 40.2596 59.8849 40.2452L57.4068 37.7779H57.402V40.0967C57.402 40.159 57.3489 40.2165 57.2812 40.2165H56.5373C56.4745 40.2165 56.4166 40.159 56.4166 40.0967V35.9143L56.4117 35.9191Z" fill="white"/>
<path d="M62.2621 35.8665H63.0108C63.0784 35.8665 63.1316 35.9192 63.1316 35.9863V40.1016C63.1316 40.1687 63.0784 40.2214 63.0108 40.2214H62.2572C62.1896 40.2214 62.1365 40.1687 62.1365 40.1016V35.9863C62.1365 35.9192 62.1896 35.8665 62.2572 35.8665H62.2621Z" fill="white"/>
<path d="M66.9323 35.8041C67.5554 35.8041 68.024 35.9957 68.4491 36.3838C68.5071 36.4317 68.5071 36.5083 68.4539 36.5562L67.966 37.0593C67.9226 37.1024 67.855 37.1024 67.8115 37.0593C67.5796 36.8532 67.2704 36.7431 66.9661 36.7431C66.256 36.7431 65.7391 37.3275 65.7391 38.0222C65.7391 38.7169 66.2657 39.2822 66.9758 39.2822C67.2705 39.2822 67.5893 39.1768 67.8163 38.9852C67.8598 38.9469 67.9419 38.9468 67.9805 38.99L68.4684 39.5074C68.5119 39.5505 68.5071 39.632 68.4636 39.6751C68.0385 40.0871 67.4975 40.2787 66.9419 40.2787C65.686 40.2787 64.6764 39.2918 64.6764 38.0462C64.6764 36.8005 65.686 35.7993 66.9419 35.7993" fill="white"/>
<path d="M71.8937 35.8044C73.1497 35.8044 74.1497 36.8057 74.1497 38.0466C74.1497 39.2874 73.1449 40.2791 71.8937 40.2791C70.6426 40.2791 69.6427 39.2922 69.6427 38.0466C69.6427 36.8009 70.6378 35.8044 71.8937 35.8044ZM71.8937 39.2874C72.5845 39.2874 73.1497 38.7269 73.1497 38.0514C73.1497 37.3758 72.5845 36.801 71.8937 36.801C71.203 36.801 70.6475 37.3663 70.6475 38.0514C70.6475 38.7365 71.2126 39.2874 71.8937 39.2874Z" fill="white"/>
<path d="M27.0504 42.9569C27.577 42.9569 28.1567 43.1773 28.5818 43.5414C28.6397 43.5845 28.6445 43.6612 28.5962 43.7091L28.0987 44.2313C28.0504 44.2744 27.9779 44.2744 27.9296 44.2361C27.6929 44.0157 27.4175 43.939 27.1084 43.939C26.4273 43.939 25.8717 44.5091 25.8717 45.1942C25.8717 45.8793 26.4321 46.4303 27.1132 46.4303C27.2968 46.4303 27.4852 46.4063 27.6688 46.3297V45.9704H27.2726C27.205 45.9704 27.1518 45.9225 27.1518 45.8602V45.2422C27.1518 45.1751 27.205 45.1272 27.2726 45.1272H28.5334C28.5962 45.1272 28.6493 45.1847 28.6493 45.2422V46.9142C28.6542 46.9477 28.63 46.9956 28.6059 47.0148C28.6059 47.0148 27.9586 47.4172 27.0504 47.4172C25.8041 47.4172 24.7993 46.4351 24.7993 45.1942C24.7993 43.9534 25.8041 42.9569 27.0504 42.9569Z" fill="white"/>
<path d="M30.6931 43.1292C30.6931 43.0669 30.7414 43.0094 30.8138 43.0094H32.6881C33.4417 43.0094 34.0552 43.613 34.0552 44.3508C34.0552 44.9209 33.6735 45.3809 33.1277 45.6013L33.9827 47.1823C34.0262 47.2637 33.9827 47.3595 33.8764 47.3595H33.0408C32.9924 47.3595 32.9538 47.3308 32.9393 47.302L32.1036 45.654H31.6688V47.2397C31.6688 47.302 31.6108 47.3547 31.5529 47.3547H30.809C30.7414 47.3547 30.6882 47.2972 30.6882 47.2397V43.1244L30.6931 43.1292ZM32.606 44.8683C32.862 44.8683 33.0842 44.6335 33.0842 44.37C33.0842 44.1065 32.8668 43.8957 32.606 43.8957H31.6785V44.8683H32.606Z" fill="white"/>
<path d="M35.3112 47.202L37.2725 43.0195C37.287 42.9812 37.3353 42.9525 37.3788 42.9525H37.4416C37.485 42.9525 37.5285 42.986 37.5478 43.0195L39.5091 47.202C39.5477 47.2834 39.4946 47.3649 39.4028 47.3649H38.7072C38.5961 47.3649 38.543 47.3265 38.485 47.2115L38.2579 46.7181H36.5527L36.3257 47.2163C36.2967 47.293 36.2242 47.3649 36.0986 47.3649H35.4079C35.3161 47.3649 35.2629 47.2834 35.3016 47.202M37.8763 45.8701L37.3981 44.8449H37.3933L36.9198 45.8701H37.8715H37.8763Z" fill="white"/>
<path d="M40.8951 43.0626C40.8951 43.0004 40.9531 42.9525 41.0159 42.9525H41.1704L43.6727 45.3383H43.6776V43.1297C43.6776 43.0674 43.7259 43.0099 43.7935 43.0099H44.547C44.6098 43.0099 44.6678 43.0674 44.6678 43.1297V47.3122C44.6678 47.3744 44.6098 47.4223 44.547 47.4223H44.4456C44.4456 47.4223 44.378 47.4032 44.3635 47.3888L41.8853 44.9215H41.8805V47.2403C41.8805 47.3026 41.8322 47.3553 41.7646 47.3553H41.0159C40.9531 47.3553 40.8999 47.2978 40.8999 47.2403L40.8903 43.0579L40.8951 43.0626Z" fill="white"/>
<path d="M48.5233 42.9472C49.1513 42.9472 49.615 43.1388 50.0401 43.5269C50.0981 43.5748 50.0981 43.6514 50.0449 43.6993L49.557 44.2024C49.5136 44.2455 49.446 44.2455 49.3977 44.2024C49.1658 43.9964 48.8615 43.8862 48.5523 43.8862C47.8422 43.8862 47.3253 44.4707 47.3253 45.1654C47.3253 45.86 47.8519 46.4254 48.5571 46.4254C48.8518 46.4254 49.1706 46.32 49.3977 46.1283C49.4411 46.09 49.5232 46.09 49.5619 46.1331L50.0498 46.6505C50.0933 46.6937 50.0884 46.7751 50.0449 46.8182C49.6199 47.2302 49.0788 47.4219 48.5233 47.4219C47.2721 47.4219 46.2626 46.4301 46.2626 45.1893C46.2626 43.9485 47.2721 42.9424 48.5233 42.9424" fill="white"/>
<path d="M53.5277 42.9525C54.7836 42.9525 55.7836 43.9537 55.7836 45.1946C55.7836 46.4354 54.7836 47.4271 53.5277 47.4271C52.2717 47.4271 51.2766 46.4402 51.2766 45.1946C51.2766 43.949 52.2717 42.9525 53.5277 42.9525ZM53.5277 46.4354C54.2184 46.4354 54.7837 45.8749 54.7837 45.1994C54.7837 44.5239 54.2184 43.949 53.5277 43.949C52.8369 43.949 52.2814 44.5143 52.2814 45.1994C52.2814 45.8845 52.8465 46.4354 53.5277 46.4354Z" fill="white"/>
<path d="M57.2852 43.1292C57.2852 43.0669 57.3384 43.0094 57.406 43.0094H58.1499C58.2127 43.0094 58.2659 43.0669 58.2659 43.1292V46.4492H59.7585C59.8261 46.4492 59.8793 46.5067 59.8793 46.569V47.2445C59.8793 47.3068 59.8261 47.3595 59.7585 47.3595H57.4012C57.3335 47.3595 57.2804 47.302 57.2804 47.2445V43.1292H57.2852Z" fill="white"/>
<path d="M63.2035 42.9525C64.4595 42.9525 65.4594 43.9537 65.4594 45.1946C65.4594 46.4354 64.4546 47.4271 63.2035 47.4271C61.9524 47.4271 60.9524 46.4402 60.9524 45.1946C60.9524 43.949 61.9475 42.9525 63.2035 42.9525ZM63.2035 46.4354C63.8943 46.4354 64.4594 45.8749 64.4594 45.1994C64.4594 44.5239 63.8943 43.949 63.2035 43.949C62.5127 43.949 61.9572 44.5143 61.9572 45.1994C61.9572 45.8845 62.5224 46.4354 63.2035 46.4354Z" fill="white"/>
<path d="M67.4349 43.0481C67.4398 42.9906 67.4977 42.9475 67.546 42.9475H67.6475C67.6765 42.9475 67.7344 42.9715 67.7538 43.0098L69.2078 45.6975H69.2223L70.6763 43.0098C70.6956 42.9715 70.7536 42.9475 70.7826 42.9475H70.884C70.9323 42.9475 70.9903 42.9906 70.9951 43.0481L71.7052 47.2258C71.7149 47.3072 71.6617 47.3599 71.5844 47.3599H70.8454C70.7874 47.3599 70.7343 47.312 70.7246 47.2593L70.4396 45.3381H70.4251L69.372 47.3503C69.3527 47.3886 69.2947 47.4174 69.2658 47.4174H69.1547C69.116 47.4174 69.0677 47.3886 69.0484 47.3503L67.9905 45.3381H67.976L67.7006 47.2593C67.6958 47.3072 67.6427 47.3599 67.5799 47.3599H66.8408C66.7635 47.3599 66.7103 47.3024 66.72 47.2258L67.4301 43.0481H67.4349Z" fill="white"/>
<path d="M73.6228 43.1292C73.6228 43.0669 73.6711 43.0094 73.7387 43.0094H75.1976C75.9366 43.0094 76.5453 43.5125 76.5453 44.164C76.5453 44.6431 76.1153 44.9928 75.8158 45.1461C76.1491 45.2851 76.6564 45.5869 76.6564 46.1618C76.6564 46.8565 76.0332 47.3595 75.2893 47.3595H73.7339C73.6662 47.3595 73.6179 47.302 73.6179 47.2445V43.1292H73.6228ZM75.0912 44.7772C75.3279 44.7772 75.5308 44.5808 75.5308 44.3317C75.5308 44.0826 75.3279 43.9101 75.0912 43.9101H74.6033V44.782H75.0912V44.7772ZM75.1734 46.4732C75.4149 46.4732 75.6226 46.272 75.6226 46.0181C75.6226 45.7642 75.3521 45.5821 75.1106 45.5821H74.6033V46.4684H75.1734V46.4732Z" fill="white"/>
<path d="M78.4533 43.0094H79.202C79.2696 43.0094 79.3228 43.0621 79.3228 43.1292V47.2445C79.3228 47.3116 79.2696 47.3643 79.202 47.3643H78.4533C78.3857 47.3643 78.3325 47.3116 78.3325 47.2445V43.134C78.3325 43.0669 78.3857 43.0142 78.4533 43.0142V43.0094Z" fill="white"/>
<path d="M80.714 47.202L82.6753 43.0195C82.6946 42.9812 82.7381 42.9525 82.7816 42.9525H82.8444C82.8879 42.9525 82.9313 42.986 82.9506 43.0195L84.9119 47.202C84.9506 47.2834 84.8974 47.3649 84.8056 47.3649H84.11C83.9989 47.3649 83.9458 47.3265 83.8927 47.2115L83.6656 46.7181H81.9604L81.7381 47.2163C81.7043 47.293 81.6367 47.3649 81.5111 47.3649H80.8203C80.7285 47.3649 80.6754 47.2834 80.714 47.202ZM83.2888 45.8701L82.8105 44.8449H82.8058L82.3371 45.8701H83.2888Z" fill="white"/>
<path d="M86.2981 43.0626C86.2981 43.0004 86.3561 42.9525 86.4189 42.9525H86.5734L89.0757 45.3383H89.0806V43.1297C89.0806 43.0674 89.1289 43.0099 89.2013 43.0099H89.9549C90.0177 43.0099 90.0756 43.0674 90.0756 43.1297V47.3122C90.0756 47.3744 90.0177 47.4223 89.9549 47.4223H89.8534C89.8534 47.4223 89.7858 47.4032 89.7713 47.3888L87.2932 44.9215V47.2403C87.2932 47.3026 87.24 47.3553 87.1724 47.3553H86.4237C86.3609 47.3553 86.3078 47.2978 86.3078 47.2403L86.2981 43.0579V43.0626Z" fill="white"/>
<path d="M93.7382 42.9525C94.9893 42.9525 95.994 43.9537 95.994 45.1946C95.994 46.4354 94.9893 47.4271 93.7382 47.4271C92.487 47.4271 91.4871 46.4402 91.4871 45.1946C91.4871 43.949 92.4822 42.9525 93.7382 42.9525ZM93.7382 46.4354C94.4289 46.4354 94.9893 45.8749 94.9893 45.1994C94.9893 44.5239 94.4241 43.949 93.7382 43.949C93.0522 43.949 92.4918 44.5143 92.4918 45.1994C92.4918 45.8845 93.057 46.4354 93.7382 46.4354Z" fill="white"/>
<path fill-rule="evenodd" clip-rule="evenodd" d="M55.4114 5.21931C61.6574 4.26113 66.6089 7.66746 68.459 10.657C69.6908 12.6548 69.9855 14.1112 70.1449 15.352C72.6568 34.8029 43.6633 34.7742 45.0594 16.3054C45.3396 12.6308 46.5762 10.8055 47.6727 9.40652C49.2475 7.39915 51.9623 5.7463 55.4114 5.21931ZM50.6484 20.6938C51.1894 22.3084 52.8464 24.3157 54.5468 25.0248C59.0248 26.8836 63.2371 24.287 64.4979 21.0004C66.7538 15.1124 62.5463 9.12867 56.9089 9.76107C51.8657 10.3216 48.8272 15.2754 50.6436 20.6938" fill="white"/>
<path fill-rule="evenodd" clip-rule="evenodd" d="M95.7621 29.7869H90.5209V5.39655C92.1826 5.39655 95.7718 5.39656 95.7718 8.07465C95.7718 10.082 95.7573 29.7869 95.7573 29.7869" fill="white"/>
<path fill-rule="evenodd" clip-rule="evenodd" d="M85.5933 25.2691H85.4339C85.4339 25.2691 85.3953 25.2691 85.3759 25.2691H78.8739L78.8642 10.082V8.06506C78.8642 5.39655 75.2509 5.39655 73.594 5.39655V29.7869H87.9169C87.9169 28.364 87.9168 25.2691 85.5885 25.2691" fill="white"/>
<path fill-rule="evenodd" clip-rule="evenodd" d="M41.8764 10.2543C39.8959 5.70781 34.8189 4.92211 30.5341 4.9269H30.51C28.8482 4.9269 25.1238 5.43953 25.1238 5.43953V29.7867C26.7807 29.7867 30.5051 29.7867 30.5051 27.1038V27.0559V23.1705C39.4901 24.4976 45.0647 17.57 41.8716 10.2543M34.2778 18.8683C32.2683 19.0791 30.481 18.8156 30.481 18.8156V9.79444C30.481 9.79444 32.104 9.68904 34.2054 9.82318C36.3019 9.95733 37.7704 11.9743 37.7704 14.4416C37.7704 16.9089 36.2922 18.6575 34.2778 18.8683Z" fill="white"/>
<path d="M25.3894 51.0247H25.2251C25.1797 51.0247 25.1429 51.0611 25.1429 51.1061V53.8704C25.1429 53.9154 25.1797 53.9519 25.2251 53.9519H25.3894C25.4348 53.9519 25.4716 53.9154 25.4716 53.8704V51.1061C25.4716 51.0611 25.4348 51.0247 25.3894 51.0247Z" fill="white"/>
<path d="M26.9205 51.0584C26.9205 51.0153 26.9592 50.9818 27.0027 50.9818H27.1089L29.0074 53.3293H29.017V51.1015C29.017 51.0584 29.0509 51.0201 29.0992 51.0201H29.2489C29.2924 51.0201 29.331 51.0584 29.331 51.1015V53.9138C29.331 53.9569 29.2924 53.9904 29.2489 53.9904H29.1716L27.2394 51.595V53.8659C27.2394 53.909 27.2055 53.9473 27.1572 53.9473H27.0075C26.964 53.9473 26.9254 53.909 26.9254 53.8659V51.0536L26.9205 51.0584Z" fill="white"/>
<path d="M30.5868 53.5112C30.6061 53.4872 30.6303 53.4585 30.6496 53.4297C30.6931 53.377 30.7366 53.3435 30.7994 53.3914C30.8284 53.4154 31.1375 53.7076 31.5095 53.7076C31.8524 53.7076 32.0747 53.4968 32.0747 53.2477C32.0747 52.9602 31.8235 52.7877 31.3356 52.5865C30.8718 52.3853 30.5916 52.1985 30.5916 51.7194C30.5916 51.4367 30.8187 50.9768 31.4901 50.9768C31.9007 50.9768 32.2099 51.1876 32.2099 51.1876C32.234 51.202 32.2872 51.2499 32.2341 51.3313C32.2196 51.3553 32.2003 51.384 32.1858 51.4128C32.1471 51.4703 32.1036 51.4894 32.036 51.4511C32.007 51.4319 31.7413 51.2595 31.4853 51.2595C31.0409 51.2595 30.9056 51.5421 30.9056 51.7194C30.9056 51.9973 31.1182 52.1602 31.4757 52.3087C32.0457 52.5386 32.4128 52.7494 32.4128 53.2381C32.4128 53.6741 31.9974 53.9903 31.5046 53.9903C31.0119 53.9903 30.669 53.7028 30.6158 53.6501C30.582 53.6214 30.5385 53.5878 30.5916 53.5064" fill="white"/>
<path d="M34.0261 51.3026H33.2919C33.2436 51.3026 33.2097 51.2643 33.2097 51.2212V51.1014C33.2097 51.0583 33.2436 51.02 33.2919 51.02H35.0792C35.1275 51.02 35.1613 51.0583 35.1613 51.1014V51.2212C35.1613 51.2643 35.1275 51.3026 35.0792 51.3026H34.3449V53.8705C34.3449 53.9136 34.3062 53.952 34.2628 53.952H34.1034C34.0599 53.952 34.0212 53.9136 34.0212 53.8705V51.3026H34.0261Z" fill="white"/>
<path d="M36.4613 51.0247H36.2969C36.2515 51.0247 36.2147 51.0611 36.2147 51.1061V53.8704C36.2147 53.9154 36.2515 53.9519 36.2969 53.9519H36.4613C36.5066 53.9519 36.5435 53.9154 36.5435 53.8704V51.1061C36.5435 51.0611 36.5066 51.0247 36.4613 51.0247Z" fill="white"/>
<path d="M38.4126 51.3026H37.6783C37.63 51.3026 37.5962 51.2643 37.5962 51.2212V51.1014C37.5962 51.0583 37.63 51.02 37.6783 51.02H39.4656C39.514 51.02 39.5478 51.0583 39.5478 51.1014V51.2212C39.5478 51.2643 39.514 51.3026 39.4656 51.3026H38.7314V53.8705C38.7314 53.9136 38.6928 53.952 38.6493 53.952H38.4898C38.4464 53.952 38.4078 53.9136 38.4078 53.8705V51.3026H38.4126Z" fill="white"/>
<path d="M40.5621 51.1014C40.5621 51.0583 40.6008 51.02 40.6443 51.02H40.8037C40.852 51.02 40.8858 51.0583 40.8858 51.1014V52.8453C40.8858 53.3196 41.1853 53.6932 41.678 53.6932C42.1708 53.6932 42.4799 53.3291 42.4799 52.8548V51.1062C42.4799 51.0631 42.5137 51.0248 42.562 51.0248H42.7214C42.7649 51.0248 42.8036 51.0631 42.8036 51.1062V52.874C42.8036 53.5112 42.3495 53.9951 41.6829 53.9951C41.0162 53.9951 40.5718 53.5112 40.5718 52.874V51.1062L40.5621 51.1014Z" fill="white"/>
<path d="M45.5136 50.9818C45.9387 50.9818 46.2478 51.1303 46.5328 51.3698C46.5666 51.4033 46.5715 51.4512 46.5328 51.4848L46.4169 51.5998C46.3831 51.6429 46.3493 51.6381 46.3058 51.5998C46.0884 51.4129 45.7889 51.2884 45.4991 51.2884C44.8324 51.2884 44.3252 51.8441 44.3252 52.4909C44.3252 53.1377 44.8373 53.6886 45.4991 53.6886C45.8662 53.6886 46.0788 53.5401 46.3058 53.3772C46.3493 53.3436 46.3831 53.3484 46.4072 53.3628L46.5328 53.4778C46.5666 53.5018 46.557 53.5592 46.5328 53.5928C46.2478 53.8706 45.8855 54 45.5087 54C44.6682 54 43.9871 53.3341 43.9871 52.5004C43.9871 51.6668 44.6634 50.9913 45.5087 50.9913" fill="white"/>
<path d="M48.021 51.0247H47.8566C47.8112 51.0247 47.7744 51.0611 47.7744 51.1061V53.8704C47.7744 53.9154 47.8112 53.9519 47.8566 53.9519H48.021C48.0663 53.9519 48.1031 53.9154 48.1031 53.8704V51.1061C48.1031 51.0611 48.0663 51.0247 48.021 51.0247Z" fill="white"/>
<path d="M50.8516 50.9815C51.6921 50.9815 52.3684 51.6522 52.3684 52.4906C52.3684 53.329 51.6921 53.9902 50.8516 53.9902C50.0111 53.9902 49.3396 53.3243 49.3396 52.4906C49.3396 51.657 50.0111 50.9815 50.8516 50.9815ZM50.8516 53.6979C51.5231 53.6979 52.0738 53.1566 52.0738 52.4906C52.0738 51.8247 51.5231 51.2737 50.8516 51.2737C50.1801 51.2737 49.6343 51.8247 49.6343 52.4906C49.6343 53.1566 50.1801 53.6979 50.8516 53.6979ZM50.47 50.5839C50.4555 50.5503 50.47 50.5168 50.4941 50.5024L51.1269 50.1527C51.1511 50.1383 51.2139 50.1287 51.238 50.1671L51.3153 50.3156C51.3298 50.3491 51.325 50.3922 51.2911 50.4018L50.6149 50.6797C50.5569 50.7036 50.5327 50.7036 50.5182 50.6701L50.4748 50.5791L50.47 50.5839Z" fill="white"/>
<path d="M53.6046 51.0584C53.6046 51.0153 53.6433 50.9818 53.6868 50.9818H53.793L55.6915 53.3293H55.7011V51.1015C55.7011 51.0584 55.7349 51.0201 55.7832 51.0201H55.933C55.9765 51.0201 56.0151 51.0584 56.0151 51.1015V53.9138C56.0151 53.9569 55.9765 53.9904 55.933 53.9904H55.8557L53.9235 51.595V53.8659C53.9235 53.909 53.8896 53.9473 53.8413 53.9473H53.6916C53.6481 53.9473 53.6094 53.909 53.6094 53.8659V51.0536L53.6046 51.0584Z" fill="white"/>
<path d="M58.9431 51.1014C58.9431 51.0583 58.9817 51.02 59.0252 51.02H59.1846C59.233 51.02 59.2667 51.0583 59.2667 51.1014V52.8453C59.2667 53.3196 59.5662 53.6932 60.059 53.6932C60.5517 53.6932 60.8609 53.3291 60.8609 52.8548V51.1062C60.8609 51.0631 60.8947 51.0248 60.943 51.0248H61.1024C61.1459 51.0248 61.1845 51.0631 61.1845 51.1062V52.874C61.1845 53.5112 60.7304 53.9951 60.0638 53.9951C59.3972 53.9951 58.9528 53.5112 58.9528 52.874V51.1062L58.9431 51.1014Z" fill="white"/>
<path d="M62.5894 51.0584C62.5894 51.0153 62.628 50.9818 62.6715 50.9818H62.7778L64.6762 53.3293H64.6859V51.1015C64.6859 51.0584 64.7197 51.0201 64.768 51.0201H64.9178C64.9612 51.0201 64.9998 51.0584 64.9998 51.1015V53.9138C64.9998 53.9569 64.9612 53.9904 64.9178 53.9904H64.8405L62.9082 51.595V53.8659C62.9082 53.909 62.8744 53.9473 62.8261 53.9473H62.6763C62.6329 53.9473 62.5942 53.909 62.5942 53.8659V51.0536L62.5894 51.0584Z" fill="white"/>
<path d="M66.6865 51.0247H66.5221C66.4767 51.0247 66.4399 51.0611 66.4399 51.1061V53.8704C66.4399 53.9154 66.4767 53.9519 66.5221 53.9519H66.6865C66.7319 53.9519 66.7686 53.9154 66.7686 53.8704V51.1061C66.7686 51.0611 66.7319 51.0247 66.6865 51.0247Z" fill="white"/>
<path d="M67.8167 51.1301C67.7925 51.0774 67.8263 51.02 67.8891 51.02H68.0582C68.0968 51.02 68.121 51.0439 68.1307 51.0679L69.1789 53.4058H69.1934L70.2417 51.0679C70.2417 51.0679 70.2803 51.02 70.3141 51.02H70.4832C70.546 51.02 70.5798 51.0726 70.5556 51.1301L69.2755 53.9424C69.261 53.9663 69.2369 53.9903 69.2031 53.9903H69.1596C69.1306 53.9903 69.1016 53.9711 69.0871 53.9424L67.8167 51.1301Z" fill="white"/>
<path d="M71.6088 51.1014C71.6088 51.0583 71.6426 51.02 71.6909 51.02H73.3526C73.4009 51.02 73.4348 51.0583 73.4348 51.1014V51.2212C73.4348 51.2643 73.4009 51.3026 73.3526 51.3026H71.9373V52.3231H73.1449C73.1884 52.3231 73.227 52.3614 73.227 52.4045V52.5243C73.227 52.5722 73.1884 52.6057 73.1449 52.6057H71.9373V53.6693H73.3526C73.4009 53.6693 73.4348 53.7076 73.4348 53.7508V53.8705C73.4348 53.9136 73.4009 53.952 73.3526 53.952H71.6909C71.6426 53.952 71.6088 53.9136 71.6088 53.8705V51.1062V51.1014Z" fill="white"/>
<path d="M74.6906 51.1014C74.6906 51.0583 74.7245 51.02 74.7728 51.02H75.8645C76.3717 51.02 76.7823 51.4128 76.7823 51.9111C76.7823 52.2943 76.5263 52.6153 76.1592 52.7638L76.734 53.8274C76.763 53.8801 76.734 53.9472 76.6615 53.9472H76.449C76.4103 53.9472 76.391 53.928 76.3814 53.9088L75.821 52.8021H75.0143V53.8657C75.0143 53.9089 74.9756 53.9472 74.9322 53.9472H74.7679C74.7196 53.9472 74.6858 53.9089 74.6858 53.8657V51.1014H74.6906ZM75.8403 52.5243C76.164 52.5243 76.449 52.256 76.449 51.9158C76.449 51.5997 76.1688 51.3266 75.8403 51.3266H75.0239V52.5243H75.8403Z" fill="white"/>
<path d="M77.8788 53.5112C77.8982 53.4872 77.9223 53.4585 77.9416 53.4297C77.9851 53.377 78.0286 53.3435 78.0914 53.3914C78.1204 53.4154 78.4296 53.7076 78.8015 53.7076C79.1445 53.7076 79.3667 53.4968 79.3667 53.2477C79.3667 52.9602 79.1155 52.7877 78.6276 52.5865C78.1639 52.3853 77.8885 52.1985 77.8885 51.7194C77.8885 51.4367 78.1155 50.9768 78.787 50.9768C79.1976 50.9768 79.5068 51.1876 79.5068 51.1876C79.5309 51.202 79.5841 51.2499 79.5309 51.3313C79.5116 51.3553 79.4971 51.384 79.4827 51.4128C79.444 51.4703 79.4005 51.4894 79.3329 51.4511C79.3039 51.4319 79.0382 51.2595 78.7822 51.2595C78.3378 51.2595 78.2025 51.5421 78.2025 51.7194C78.2025 51.9973 78.415 52.1602 78.7725 52.3087C79.3425 52.5386 79.7097 52.7494 79.7097 53.2381C79.7097 53.6741 79.2942 53.9903 78.8015 53.9903C78.3088 53.9903 77.9658 53.7028 77.9127 53.6501C77.8789 53.6214 77.8354 53.5878 77.8885 53.5064" fill="white"/>
<path d="M81.1489 51.0247H80.9845C80.9392 51.0247 80.9023 51.0611 80.9023 51.1061V53.8704C80.9023 53.9154 80.9392 53.9519 80.9845 53.9519H81.1489C81.1943 53.9519 81.2311 53.9154 81.2311 53.8704V51.1061C81.2311 51.0611 81.1943 51.0247 81.1489 51.0247Z" fill="white"/>
<path d="M83.1007 51.3026H82.3664C82.3181 51.3026 82.2843 51.2643 82.2843 51.2212V51.1014C82.2843 51.0583 82.3181 51.02 82.3664 51.02H84.1538C84.2021 51.02 84.2359 51.0583 84.2359 51.1014V51.2212C84.2359 51.2643 84.2021 51.3026 84.1538 51.3026H83.4195V53.8705C83.4195 53.9136 83.3809 53.952 83.3374 53.952H83.178C83.1345 53.952 83.0959 53.9136 83.0959 53.8705V51.3026H83.1007Z" fill="white"/>
<path d="M84.7236 53.8419L86.0037 51.0296C86.0182 51.0057 86.0375 50.9818 86.0761 50.9818H86.1196C86.1583 50.9818 86.1775 51.0009 86.192 51.0296L87.4625 53.8419C87.4866 53.8946 87.4529 53.9521 87.3901 53.9521H87.221C87.1823 53.9521 87.1582 53.9281 87.1486 53.9042L86.8345 53.2143H85.3371L85.0279 53.9042C85.0279 53.9042 84.9941 53.9521 84.9554 53.9521H84.7864C84.7236 53.9521 84.6897 53.8994 84.7139 53.8419M86.7138 52.9556C86.5061 52.5005 86.3032 52.0405 86.1003 51.5854H86.0665L85.453 52.9556H86.7186H86.7138Z" fill="white"/>
<path d="M88.5108 51.1014C88.5108 51.0583 88.5447 51.02 88.593 51.02H89.6847C90.1919 51.02 90.6025 51.4128 90.6025 51.9111C90.6025 52.2943 90.3465 52.6153 89.9794 52.7638L90.5542 53.8274C90.5832 53.8801 90.5542 53.9472 90.4817 53.9472H90.2692C90.2305 53.9472 90.2112 53.928 90.2015 53.9088L89.6412 52.8021H88.8345V53.8657C88.8345 53.9089 88.7958 53.9472 88.7523 53.9472H88.5881C88.5398 53.9472 88.506 53.9089 88.506 53.8657V51.1014H88.5108ZM89.6605 52.5243C89.9842 52.5243 90.2692 52.256 90.2692 51.9158C90.2692 51.5997 89.989 51.3266 89.6605 51.3266H88.8442V52.5243H89.6605Z" fill="white"/>
<path d="M92.1344 51.0247H91.97C91.9246 51.0247 91.8878 51.0611 91.8878 51.1061V53.8704C91.8878 53.9154 91.9246 53.9519 91.97 53.9519H92.1344C92.1797 53.9519 92.2166 53.9154 92.2166 53.8704V51.1061C92.2166 51.0611 92.1797 51.0247 92.1344 51.0247Z" fill="white"/>
<path d="M93.26 53.8419L94.5401 51.0296C94.5546 51.0057 94.574 50.9818 94.6126 50.9818H94.6561C94.6947 50.9818 94.714 51.0009 94.7285 51.0296L95.999 53.8419C96.0232 53.8946 95.9893 53.9521 95.9265 53.9521H95.7575C95.7188 53.9521 95.6947 53.9281 95.685 53.9042L95.371 53.2143H93.8735L93.5643 53.9042C93.5643 53.9042 93.5306 53.9521 93.4919 53.9521H93.3228C93.26 53.9521 93.2262 53.8994 93.2504 53.8419M95.2502 52.9556C95.0425 52.5005 94.8397 52.0405 94.6368 51.5854H94.6029L93.9894 52.9556H95.2551H95.2502Z" fill="white"/>
</svg>
